<?xml version="1.0" encoding="UTF-8"?>
<svg width="24px" height="24px" viewBox="0 0 24 24" version="1.1" xmlns="http://www.w3.org/2000/svg" xmlns:xlink="http://www.w3.org/1999/xlink">
    <!-- Generator: Sketch 64 (93537) - https://sketch.com -->
    <title>VS_PF</title>
    <desc>Created with Sketch.</desc>
    <g id="VS_PF" stroke="none" stroke-width="1" fill="none" fill-rule="evenodd">
        <path d="M12.1447454,0.018510293 L12.16808,0.0244763423 C12.1760656,0.0269408292 12.1839956,0.0295767188 12.1918636,0.0323808138 C12.2632967,0.0560135129 12.3306807,0.0950977037 12.3885949,0.148749986 C12.3924236,0.153623487 12.3965972,0.157523951 12.4007133,0.16148796 C12.4091983,0.168714202 12.4167978,0.176689501 12.4241965,0.1849418 L12.436,0.201 L23.811477,10.3836841 C24.0111565,10.5624256 24.0581127,10.856707 23.923973,11.0887135 L20.0720307,17.7509853 C19.9309367,17.9950199 19.631776,18.0980355 19.3703457,17.9926099 L16.124,16.683 L12.4848356,22.5251241 C12.2817463,22.8510975 11.829819,22.8782619 11.5852567,22.6066174 L11.5240419,22.5251241 L7.882,16.68 L4.62965432,17.9926099 C4.3972718,18.0863216 4.13507768,18.0153389 3.98058637,17.8270148 L3.92796928,17.7509853 L0.0760270103,11.0887135 C-0.0581127186,10.856707 -0.011156548,10.5624256 0.188522997,10.3836841 L0.188522997,10.3836841 L11.5641429,0.198513174 C11.6390465,0.112110228 11.7391738,0.0497759797 11.8487828,0.0195503147 C11.8582232,0.0176179283 11.8672925,0.0152625682 11.8763818,0.0131495721 C11.8874913,0.010172747 11.8992023,0.00792408689 11.910985,0.00604344522 C11.9303506,0.00310978428 11.9491238,0.00104133751 11.9678709,-6.28137307e-05 C11.9693891,-0.000199332396 11.9714179,-0.00030585462 11.9734478,-0.00040134433 L12.0265522,-0.000401344329 C12.0285821,-0.00030585462 12.0306109,-0.000199332396 12.0326385,-8.18224956e-05 C12.0508762,0.00104133751 12.0696494,0.00310978428 12.0883808,0.00617712305 C12.0953382,0.00705268482 12.1016407,0.00816790982 12.1079197,0.00938769639 L12.1206042,0.0124579569 C12.1216091,0.0126855393 12.1226138,0.0129160759 12.1236182,0.0131495721 C12.1255756,0.0132674499 12.1278733,0.0137612941 12.1301681,0.0142692481 C12.1386903,0.0168720614 12.1417193,0.0176774654 12.1447454,0.018510293 Z M12,6.078 L11.0632255,15.0735067 C11.041522,15.2820054 10.9063608,15.4614347 10.7119482,15.5398344 L10.7119482,15.5398344 L8.948,16.25 L12.0039119,21.1549518 L15.057,16.253 L13.2880518,15.5398344 C13.0936392,15.4614347 12.958478,15.2820054 12.9367745,15.0735067 L12,6.078 Z M10.476,2.693 L1.28605943,10.9204561 L4.66173962,16.7586725 L7.274,15.704 L6.0215093,13.6931537 C5.94317937,13.5674284 5.91800809,13.417412 5.94844691,13.2753093 L5.98174122,13.1707193 L10.476,2.693 Z M13.537,2.706 L18.0271363,13.1707193 C18.1001327,13.3408856 18.0852806,13.535997 17.9873682,13.6931537 L17.9873682,13.6931537 L16.732,15.707 L19.3383364,16.7586973 L22.7140166,10.9204808 L13.537,2.706 Z M12.941,4.186 L14.0277175,14.61658 L15.665,15.277 L16.8692423,13.3458446 L12.941,4.186 Z M11.055,4.215 L7.13858153,13.3458446 L8.34,15.274 L9.9723586,14.6165552 L11.055,4.215 Z" id="Combined-Shape" fill="#848484" fill-rule="nonzero"></path>
    </g>
</svg>